<svg width="12" height="13" viewBox="0 0 12 13" fill="none" xmlns="http://www.w3.org/2000/svg">
<path d="M1.14286 0V1.13043H0V13H3.14286V10.4565H4.28571V13H7.42857V1.13043H6.28571V0H1.14286ZM1.71429 2.26087H2.28571V2.82609H1.71429V2.26087ZM2.85714 2.26087H3.42857V2.82609H2.85714V2.26087ZM4 2.26087H4.57143V2.82609H4V2.26087ZM5.14286 2.26087H5.71429V2.82609H5.14286V2.26087ZM8 3.3913V4.52174H8.57143V5.08696H8V5.65217H8.57143V6.21739H8V6.78261H8.57143V7.34783H8V7.91304H8.57143V8.47826H8V9.04348H8.57143V9.6087H8V10.1739H8.57143V10.7391H8V11.3043H8.57143V11.8696H8V13H12V3.3913H8ZM1.71429 3.67391H2.28571V4.80435H1.71429V3.67391ZM2.85714 3.67391H3.42857V4.80435H2.85714V3.67391ZM4 3.67391H4.57143V4.80435H4V3.67391ZM5.14286 3.67391H5.71429V4.80435H5.14286V3.67391ZM9.14286 4.52174H9.71429V5.08696H9.14286V4.52174ZM10.2857 4.52174H10.8571V5.08696H10.2857V4.52174ZM1.71429 5.36957H2.28571V6.5H1.71429V5.36957ZM2.85714 5.36957H3.42857V6.5H2.85714V5.36957ZM4 5.36957H4.57143V6.5H4V5.36957ZM5.14286 5.36957H5.71429V6.5H5.14286V5.36957ZM9.14286 5.65217H9.71429V6.21739H9.14286V5.65217ZM10.2857 5.65217H10.8571V6.21739H10.2857V5.65217ZM9.14286 6.78261H9.71429V7.34783H9.14286V6.78261ZM10.2857 6.78261H10.8571V7.34783H10.2857V6.78261ZM1.71429 7.06522H2.28571V8.19565H1.71429V7.06522ZM2.85714 7.06522H3.42857V8.19565H2.85714V7.06522ZM4 7.06522H4.57143V8.19565H4V7.06522ZM5.14286 7.06522H5.71429V8.19565H5.14286V7.06522ZM9.14286 7.91304H9.71429V8.47826H9.14286V7.91304ZM10.2857 7.91304H10.8571V8.47826H10.2857V7.91304ZM1.71429 8.76087H2.28571V9.8913H1.71429V8.76087ZM2.85714 8.76087H3.42857V9.8913H2.85714V8.76087ZM4 8.76087H4.57143V9.8913H4V8.76087ZM5.14286 8.76087H5.71429V9.8913H5.14286V8.76087ZM9.14286 9.04348H9.71429V9.6087H9.14286V9.04348ZM10.2857 9.04348H10.8571V9.6087H10.2857V9.04348ZM9.14286 10.1739H9.71429V10.7391H9.14286V10.1739ZM10.2857 10.1739H10.8571V10.7391H10.2857V10.1739ZM1.71429 10.4565H2.28571V11.8696H1.71429V10.4565ZM5.14286 10.4565H5.71429V11.8696H5.14286V10.4565ZM9.14286 11.3043H9.71429V11.8696H9.14286V11.3043ZM10.2857 11.3043H10.8571V11.8696H10.2857V11.3043Z" fill="#119EB5"/>
</svg>
