<svg width="12" height="12" viewBox="0 0 12 12" fill="none" xmlns="http://www.w3.org/2000/svg">
<path d="M4.2 0H1.2C0.537258 0 0 0.537258 0 1.2V5.4C0 6.06274 0.537258 6.6 1.2 6.6H4.2C4.86274 6.6 5.4 6.06274 5.4 5.4V1.2C5.4 0.537258 4.86274 0 4.2 0Z" fill="#119EB5"/>
<path d="M10.8 0H7.8C7.13726 0 6.6 0.537258 6.6 1.2V3C6.6 3.66274 7.13726 4.2 7.8 4.2H10.8C11.4627 4.2 12 3.66274 12 3V1.2C12 0.537258 11.4627 0 10.8 0Z" fill="#119EB5"/>
<path d="M4.2 7.8H1.2C0.537258 7.8 0 8.33726 0 9V10.8C0 11.4627 0.537258 12 1.2 12H4.2C4.86274 12 5.4 11.4627 5.4 10.8V9C5.4 8.33726 4.86274 7.8 4.2 7.8Z" fill="#119EB5"/>
<path d="M10.8 5.4H7.8C7.13726 5.4 6.6 5.93726 6.6 6.6V10.8C6.6 11.4627 7.13726 12 7.8 12H10.8C11.4627 12 12 11.4627 12 10.8V6.6C12 5.93726 11.4627 5.4 10.8 5.4Z" fill="#119EB5"/>
</svg>
