<svg width="12" height="13" viewBox="0 0 12 13" fill="none" xmlns="http://www.w3.org/2000/svg">
<path fill-rule="evenodd" clip-rule="evenodd" d="M0.781047 0.761521C-7.94729e-08 1.52305 0 2.74869 0 5.2V7.8C0 10.2513 -7.94729e-08 11.477 0.781047 12.2385C1.5621 13 2.81917 13 5.33333 13H6.66667C9.1808 13 10.4379 13 11.2189 12.2385C12 11.477 12 10.2513 12 7.8V5.2C12 2.74869 12 1.52305 11.2189 0.761521C10.4379 7.7486e-08 9.1808 0 6.66667 0H5.33333C2.81917 0 1.5621 7.7486e-08 0.781047 0.761521ZM3.33333 4.7125C3.05719 4.7125 2.83333 4.93076 2.83333 5.2C2.83333 5.46923 3.05719 5.6875 3.33333 5.6875H8.66667C8.9428 5.6875 9.16667 5.46923 9.16667 5.2C9.16667 4.93076 8.9428 4.7125 8.66667 4.7125H3.33333ZM3.33333 7.3125C3.05719 7.3125 2.83333 7.53077 2.83333 7.8C2.83333 8.06923 3.05719 8.2875 3.33333 8.2875H6.66667C6.9428 8.2875 7.16667 8.06923 7.16667 7.8C7.16667 7.53077 6.9428 7.3125 6.66667 7.3125H3.33333Z" fill="#18A0B9"/>
</svg>
