<svg width="760" height="780" viewBox="0 0 760 780" fill="none" xmlns="http://www.w3.org/2000/svg">
<path d="M490.004 740.885C515.658 740.885 515.658 779.899 490.004 779.899H19.9499C9.17816 779.899 0.447388 771.159 0.447388 760.387V172.959C0.447388 167.573 2.63008 162.688 6.15452 159.163L159.51 5.81741C163.318 2.00951 168.307 0.10083 173.296 0.10083H614.455C625.227 0.10083 633.967 8.84106 633.967 19.6128V361.058C633.967 386.721 594.953 386.721 594.953 361.058V39.1153H181.375L39.4619 181.038V740.885H490.004ZM158.149 568.934C132.486 568.934 132.486 529.919 158.149 529.919H447.919C473.582 529.919 473.582 568.934 447.919 568.934H158.149ZM158.149 309.391C132.486 309.391 132.486 270.377 158.149 270.377H447.919C473.582 270.377 473.582 309.391 447.919 309.391H158.149ZM158.149 395.905C132.486 395.905 132.486 356.891 158.149 356.891H447.919C473.582 356.891 473.582 395.905 447.919 395.905H158.149ZM158.149 482.42C132.486 482.42 132.486 443.405 158.149 443.405H447.919C473.582 443.405 473.582 482.42 447.919 482.42H158.149ZM158.149 222.877C132.486 222.877 132.486 183.863 158.149 183.863H447.919C473.582 183.863 473.582 222.877 447.919 222.877H158.149ZM627.353 447.997C674.446 447.997 712.62 486.171 712.62 533.264C712.62 550.367 707.584 566.288 698.919 579.63C734.418 603.186 757.001 642.068 759.515 684.701C761.017 710.27 722.144 712.547 720.651 686.988C718.658 653.265 699.287 623.227 669.505 607.391C657.07 614.477 642.689 618.521 627.353 618.521C610.761 618.521 595.274 613.788 582.178 605.586C550.581 620.817 529.642 651.923 527.573 686.988C526.07 712.547 487.207 710.27 488.709 684.701C491.346 640.122 515.875 599.775 553.982 576.72C546.433 563.992 542.096 549.138 542.096 533.264C542.096 486.18 580.269 447.997 627.353 447.997ZM627.353 487.012C601.813 487.012 581.11 507.724 581.11 533.264C581.11 558.804 601.813 579.507 627.353 579.507C652.893 579.507 673.605 558.804 673.605 533.264C673.605 507.724 652.903 487.012 627.353 487.012Z" fill="#7FC1FB"/>
</svg>
