<svg width="12" height="15" viewBox="0 0 12 15" fill="none" xmlns="http://www.w3.org/2000/svg">
<path d="M9.88708 12.0543H10.2258C11.4086 12.0543 12 11.4345 12 10.2007V4.51004H8.59521C7.99808 4.51004 7.65932 4.16175 7.65932 3.54782V0H4.67942C3.49663 0 2.8995 0.619848 2.8995 1.8536V2.14286H3.64591C4.4555 2.14286 5.10428 2.37897 5.74734 3.04015L9.00285 6.39905C9.65167 7.06612 9.88708 7.75088 9.88708 8.55372V12.0543ZM8.71002 3.77215H11.7244C11.6899 3.58323 11.5694 3.41794 11.3684 3.21134L8.92248 0.649339C8.72727 0.442741 8.55501 0.312857 8.37702 0.283366L8.38275 3.42975C8.38275 3.67179 8.47464 3.77215 8.71002 3.77215ZM1.77989 15H7.32631C8.50908 15 9.1062 14.3802 9.1062 13.1464V8.39432H4.94927C4.20859 8.39432 3.8641 8.03424 3.8641 7.27864V2.94568H1.77989C0.597126 2.94568 0 3.56553 0 4.7993V13.1464C0 14.3861 0.597126 15 1.77989 15ZM4.94354 7.58558H8.80191C8.74449 7.35536 8.58945 7.14284 8.33109 6.87131L5.34545 3.74853C5.09282 3.48289 4.86887 3.32349 4.65071 3.25856V7.28454C4.65071 7.48524 4.7483 7.58558 4.94354 7.58558Z" fill="white"/>
</svg>
