<svg width="598" height="598" viewBox="0 0 598 598" fill="none" xmlns="http://www.w3.org/2000/svg">
<path d="M359.867 2.5333C352.133 4.9333 343.067 11.6 338.133 18.2666C331.733 26.9333 330 34.6666 330 54.8V72.2666L205.067 41.0666C64.1333 5.86663 71.2 7.06663 55.3333 15.4666C46.5333 20.1333 41.0666 25.7333 36.4 35.3333L33.3333 41.3333L32.6667 576.667H19.8666C8.26665 576.667 6.93332 576.933 3.99998 580C-0.400018 584.267 -0.400018 590.4 3.99998 594.667L7.19998 598H239.333V494.267L226.533 493.733C215.067 493.333 213.467 493.067 211.2 490.133C207.867 486 207.867 478.8 211.333 475.333C214 472.667 215.733 472.667 299.333 472.667C382.933 472.667 384.667 472.667 387.333 475.333C390.8 478.8 390.8 486 387.467 490.133C385.2 493.067 383.6 493.333 372.133 493.733L359.333 494.267V598H591.467L594.667 594.667C599.067 590.4 599.067 584.267 594.667 580C591.6 576.8 590.8 576.667 574.133 576.667H556.667L556 32L552.8 25.3333C548.533 16.9333 539.6 7.86663 531.6 4.26663C525.467 1.3333 524.267 1.3333 445.333 1.06663C382.8 0.799966 364.133 1.19997 359.867 2.5333ZM525.467 25.4666C527.467 26.9333 530.4 29.8666 531.867 31.8666C534.667 35.4666 534.667 35.6 535.067 268.8L535.333 502H434V334.933C434 219.867 433.6 165.333 432.533 160C430 146 422 134.933 409.733 128.4C404.4 125.6 402.133 125.333 377.733 124.933L351.333 124.4V82C351.333 38 351.733 34.6666 357.067 28.8C363.333 22 362.4 22 444.933 22.4C520.267 22.6666 521.867 22.6666 525.467 25.4666ZM204.8 62.9333L330.133 94.4L329.333 124L262.667 124.667C198 125.333 195.867 125.467 189.867 128.133C181.467 132 173.2 140.667 168.8 149.867L165.333 157.333L164.533 502H54L54.6667 44.8L57.4667 41.0666C61.8667 35.0666 68.4 31.3333 74.4 31.3333C77.2 31.3333 136 45.6 204.8 62.9333ZM374.933 190.267C378.8 193.867 378.933 200.533 375.467 204.8L372.933 208H225.733L223.2 204.8C219.867 200.667 220 194.267 223.6 190.4L226.4 187.333H371.867L374.933 190.267ZM371.2 243.467C378.267 246 380.4 254.8 375.333 260.4L372.533 263.333H299.333C227.733 263.333 226 263.333 223.333 260.667C218.4 255.733 220.133 246.667 226.533 243.867C232 241.6 364.533 241.2 371.2 243.467ZM374.667 301.333C379.333 305.867 379.2 312.8 374.533 316.533C371.067 319.333 369.733 319.333 299.333 319.333C228.933 319.333 227.6 319.333 224.133 316.533C219.467 312.8 219.333 305.867 224 301.333L227.2 298H371.467L374.667 301.333ZM374.933 356.933C378.8 360.533 378.933 367.2 375.467 371.467L372.933 374.667H225.733L223.2 371.467C219.867 367.333 220 360.933 223.6 357.067L226.4 354H371.867L374.933 356.933ZM375.333 412.667C378.133 415.467 378.8 421.867 376.667 426C374 430.933 369.067 431.333 299.333 431.333C229.6 431.333 224.667 430.933 222 426C219.867 421.867 220.533 415.467 223.333 412.667C226 410 227.733 410 299.333 410C370.933 410 372.667 410 375.333 412.667ZM164.667 576.667H54V523.333H164.667V576.667ZM535.333 576.667H434V523.333H535.333V576.667Z" fill="#7FC1FB"/>
<path d="M390.4 78C386.533 81.6 385.467 85.4667 387.333 89.8667C389.6 95.4667 393.867 96.6667 410.667 96.6667C424.667 96.6667 426.133 96.4 429.467 93.6C432.133 91.3333 433.067 89.2 433.067 86C433.067 82.8 432.133 80.6667 429.467 78.4C426.133 75.6 424.667 75.3333 409.467 75.3333C395.067 75.3333 392.8 75.6 390.4 78Z" fill="#7FC1FB"/>
<path d="M465.067 78C461.2 81.6 460.133 85.4667 462 89.8667C464.267 95.4667 468.533 96.6667 485.2 96.6667C498.4 96.6667 500.8 96.2667 503.867 93.8667C506.533 91.7333 507.333 90 507.333 86C507.333 82 506.533 80.2667 503.867 78.1333C500.667 75.6 498.533 75.3333 484.133 75.3333C469.733 75.3333 467.467 75.6 465.067 78Z" fill="#7FC1FB"/>
<path d="M465.067 134C461.2 137.6 460.133 141.467 462 145.867C464.267 151.467 468.533 152.667 485.2 152.667C498.4 152.667 500.8 152.267 503.867 149.867C506.533 147.733 507.333 146 507.333 142C507.333 138 506.533 136.267 503.867 134.133C500.667 131.6 498.533 131.333 484.133 131.333C469.733 131.333 467.467 131.6 465.067 134Z" fill="#7FC1FB"/>
<path d="M464.8 189.6C463.333 190.933 461.6 193.867 461.2 196.267C460.533 199.867 461.067 201.2 464.533 204.667L468.667 208.933L485.2 208.4C499.2 208.133 502.133 207.6 504.533 205.467C508.533 201.867 508.267 194 504.267 190.267C501.467 187.6 499.733 187.333 484.4 187.333C470.4 187.333 467.2 187.733 464.8 189.6Z" fill="#7FC1FB"/>
<path d="M469.067 242.933C465.2 243.733 460.667 249.467 460.667 253.6C460.667 255.333 462.133 258.267 464 260C467.067 263.2 467.867 263.333 484.667 263.333C500.267 263.333 502.267 263.067 504.667 260.667C507.467 257.867 508.133 251.467 506 247.333C505.333 246 502.8 244.267 500.533 243.467C496.533 242.133 475.333 241.733 469.067 242.933Z" fill="#7FC1FB"/>
<path d="M464.533 301.867C462.4 304 460.667 306.8 460.667 308C460.667 311.2 464.267 317.6 466.667 318.533C467.867 318.933 476 319.333 484.533 319.333C498.533 319.333 500.667 319.067 503.867 316.533C506.533 314.4 507.333 312.667 507.333 308.667C507.333 304.667 506.533 302.933 503.867 300.8C500.667 298.267 498.533 298 484.4 298C468.533 298 468.4 298 464.533 301.867Z" fill="#7FC1FB"/>
<path d="M464.8 356.267C463.333 357.6 461.6 360.533 461.2 362.933C460.533 366.533 461.067 367.867 464.4 371.333L468.4 375.333H484.4C498.533 375.333 500.667 375.067 503.867 372.533C508.533 368.933 508.667 361.067 504.267 356.933C501.467 354.267 499.733 354 484.4 354C470.4 354 467.2 354.4 464.8 356.267Z" fill="#7FC1FB"/>
<path d="M463.467 413.467C459.867 418.133 460 422.4 463.867 426.8C466.8 430.267 467.733 430.533 479.733 431.067C494.933 431.733 501.2 430.8 504.8 427.2C508.267 423.733 508.133 416.133 504.667 412.667C502.267 410.267 500.267 410 484.133 410C466.4 410 466.133 410 463.467 413.467Z" fill="#7FC1FB"/>
<path d="M89.3333 78.6667C87.2 80.6667 86 83.4667 86 86C86 88.5333 87.2 91.3333 89.3333 93.3333C92.4 96.5333 93.3333 96.6667 109.333 96.6667C125.333 96.6667 126.267 96.5333 129.333 93.3333C131.467 91.3333 132.667 88.5333 132.667 86C132.667 83.4667 131.467 80.6667 129.333 78.6667C126.267 75.4667 125.333 75.3333 109.333 75.3333C93.3333 75.3333 92.4 75.4667 89.3333 78.6667Z" fill="#7FC1FB"/>
<path d="M89.3333 134.667C87.2 136.667 86 139.467 86 142C86 144.533 87.2 147.333 89.3333 149.333C92.4 152.533 93.3333 152.667 109.333 152.667C125.333 152.667 126.267 152.533 129.333 149.333C131.467 147.333 132.667 144.533 132.667 142C132.667 139.467 131.467 136.667 129.333 134.667C126.267 131.467 125.333 131.333 109.333 131.333C93.3333 131.333 92.4 131.467 89.3333 134.667Z" fill="#7FC1FB"/>
<path d="M89.3333 190.667C85.7333 194.133 85.2 197.467 87.4666 202.533C89.8666 207.733 94.8 208.933 112 208.4C126.533 208 127.733 207.733 130.133 204.8C133.6 200.533 133.467 193.867 129.6 190.267C126.8 187.6 125.067 187.333 109.467 187.333C93.3333 187.333 92.4 187.467 89.3333 190.667Z" fill="#7FC1FB"/>
<path d="M93.2 243.333C89.4666 244.8 86 249.733 86 253.467C86 255.067 87.2 257.867 88.8 259.867C91.4666 263.333 91.7333 263.333 109.2 263.333C126 263.333 127.067 263.2 129.733 260.267C135.067 254.533 133.067 246 125.867 243.467C120.933 241.733 97.3333 241.6 93.2 243.333Z" fill="#7FC1FB"/>
<path d="M92 299.6C85.2 303.2 84 310.8 89.3333 316C92.4 319.2 93.3333 319.333 109.333 319.333C125.333 319.333 126.267 319.2 129.333 316C133.733 311.733 133.733 305.6 129.333 301.333C126.267 298.133 125.333 298 110.4 298C101.6 298 93.4667 298.667 92 299.6Z" fill="#7FC1FB"/>
<path d="M89.3333 357.333C85.2 361.333 85.0666 367.067 88.6666 371.067C92.4 375.067 95.6 375.6 112.667 375.067C126.4 374.667 127.733 374.4 130.133 371.467C133.867 366.8 133.467 360.133 129.2 356.8C126 354.267 123.867 354 109.067 354C93.3333 354 92.4 354.133 89.3333 357.333Z" fill="#7FC1FB"/>
<path d="M88.8 413.467C85.0667 418.133 85.3333 422.4 89.2 426.933C92.2666 430.533 93.0667 430.667 105.333 431.067C120.667 431.733 126.533 430.8 130.133 427.2C133.733 423.6 133.467 416.533 129.6 412.933C126.8 410.267 125.067 410 109.067 410C91.7333 410 91.4667 410 88.8 413.467Z" fill="#7FC1FB"/>
<path d="M260.667 598H338V494H260.667V598Z" fill="#7FC1FB"/>
</svg>
