<svg width="14" height="21" viewBox="0 0 14 21" fill="none" xmlns="http://www.w3.org/2000/svg">
<path d="M13.3027 20H1V9.63498C1 6.23769 3.75404 3.48364 7.15133 3.48364C10.5486 3.48364 13.3027 6.23769 13.3027 9.63498V20Z" fill="#119EB5" stroke="#119EB5" stroke-width="0.5" stroke-linecap="round"/>
<path d="M4.72595 3.66993V3.35508C4.72595 2.0544 5.78036 1 7.08103 1V1C8.38171 1 9.43611 2.05441 9.43611 3.35508V3.66993" stroke="#004A56" stroke-width="0.5" stroke-linecap="round"/>
<path d="M3.00488 10.6599H10.6599" stroke="white" stroke-width="0.5" stroke-linecap="round"/>
<path d="M9.68079 12.4825C9.68079 12.6205 9.79271 12.7325 9.93079 12.7325C10.0689 12.7325 10.1808 12.6205 10.1808 12.4825H9.68079ZM9.93079 10.6599H9.68079V12.4825H9.93079H10.1808V10.6599H9.93079Z" fill="white"/>
</svg>
