<svg width="32" height="31" viewBox="0 0 32 31" fill="none" xmlns="http://www.w3.org/2000/svg">
<path d="M16.1179 0L0 11.8561L6.41301 30.1271L26.0119 30.2683L32 11.2412L16.1179 0Z" fill="#0F4F63"/>
<path d="M16.1179 0L10.014 18.9464L0 11.8561L16.1179 0Z" fill="#86D9D9"/>
<path d="M26.0119 30.2703L6.41301 30.1292L0 11.8561L26.0119 30.2703Z" fill="#619EB7"/>
<path d="M6.41302 30.1292L32 11.2433L26.012 30.2703L6.41302 30.1292Z" fill="#69ADC3"/>
<path d="M26.0119 30.2703L16.1179 0L32 11.2432L26.0119 30.2703Z" fill="#75C0CE"/>
<path d="M32 11.2432L11.8704 12.0174L16.1179 0L32 11.2432Z" fill="#7DCCD4"/>
<path d="M16.1179 0L10.014 18.9464L0 11.8561L16.1179 0Z" fill="#86D9D9"/>
</svg>
