<svg width="600" height="668" viewBox="0 0 600 668" fill="none" xmlns="http://www.w3.org/2000/svg">
<path opacity="0.6" d="M400 0.666626H366.667C272.387 0.666626 225.245 0.666626 195.956 29.956C166.667 59.2453 166.667 106.386 166.667 200.667V467.333C166.667 561.613 166.667 608.753 195.956 638.043C225.245 667.333 272.387 667.333 366.667 667.333H400C494.28 667.333 541.42 667.333 570.71 638.043C600 608.753 600 561.613 600 467.333V200.667C600 106.386 600 59.2453 570.71 29.956C541.42 0.666626 494.28 0.666626 400 0.666626Z" fill="#008196" fill-opacity="0.3"/>
<path opacity="0.4" d="M166.667 200.667C166.667 149.416 166.667 112.096 171.371 84H166.667C88.0993 84 48.8157 84 24.4077 108.408C-1.98682e-06 132.816 0 172.099 0 250.667V417.333C0 495.9 -1.98682e-06 535.183 24.4077 559.593C48.8157 584 88.0993 584 166.667 584H171.371C166.667 555.903 166.667 518.583 166.667 467.333V359V309V200.667Z" fill="#008196" fill-opacity="0.3"/>
<path fill-rule="evenodd" clip-rule="evenodd" d="M48.989 316.323C39.226 326.087 39.226 341.913 48.989 351.677L115.656 418.343C125.419 428.107 141.248 428.107 151.011 418.343C160.774 408.58 160.774 392.753 151.011 382.99L127.022 359H366.667C380.473 359 391.667 347.807 391.667 334C391.667 320.193 380.473 309 366.667 309H127.022L151.011 285.01C160.774 275.247 160.774 259.419 151.011 249.656C141.248 239.893 125.419 239.893 115.656 249.656L48.989 316.323Z" fill="#119EB5"/>
</svg>
