<svg width="30" height="29" viewBox="0 0 30 29" fill="none" xmlns="http://www.w3.org/2000/svg">
<path opacity="0.5" d="M21.3252 0H19.8794C15.7901 0 13.7461 0.00033264 12.4757 1.27073C11.2053 2.54112 11.2053 4.58578 11.2053 8.67511V20.2414C11.2053 24.3309 11.2053 26.3755 12.4757 27.6458C13.7458 28.9159 15.789 28.9159 19.8762 28.9159H19.8794H21.3252C25.4145 28.9159 27.4592 28.9159 28.7296 27.6455C30 26.3751 30 24.3305 30 20.2412V8.67478C30 4.58548 30 2.54079 28.7296 1.27039C27.4592 0 25.4145 0 21.3252 0Z" fill="#D9D9D9"/>
<path fill-rule="evenodd" clip-rule="evenodd" d="M20.9641 14.458C20.9641 13.8591 20.4786 13.3736 19.8797 13.3736H4.01561L6.85032 10.9439C7.30502 10.5541 7.35768 9.86958 6.96793 9.41487C6.5782 8.96018 5.89365 8.90753 5.43896 9.29726L0.378669 13.6346C0.138319 13.8406 0 14.1413 0 14.458C0 14.7745 0.138319 15.0752 0.378669 15.2812L5.43896 19.6186C5.89365 20.0084 6.5782 19.9558 6.96793 19.5011C7.35768 19.0464 7.30502 18.3618 6.85032 17.972L4.01561 15.5423H19.8797C20.4786 15.5423 20.9641 15.0568 20.9641 14.458Z" fill="#EDD3FA"/>
</svg>
