<svg width="189" height="162" viewBox="0 0 189 162" fill="none" xmlns="http://www.w3.org/2000/svg">
<mask id="mask0_29_177" style="mask-type:alpha" maskUnits="userSpaceOnUse" x="0" y="0" width="189" height="162">
<path d="M0 0H189V142C189 153.046 180.046 162 169 162H0V0Z" fill="#D9D9D9"/>
</mask>
<g mask="url(#mask0_29_177)">
<g opacity="0.5">
<path d="M113.697 245.482C109.298 248.023 103.662 246.513 101.122 242.113L2.60286 71.4724C0.0626483 67.0726 1.57261 61.4374 5.97238 58.8971L77.7062 17.4816C89.2688 10.8059 97.7417 11.0531 101.765 11.8039L101.95 11.8384L154.101 25.3511C161.628 27.2937 168.192 32.2805 172.083 39.021L242.274 160.595C244.814 164.995 243.304 170.63 238.905 173.171L113.687 245.465L113.697 245.482Z" fill="#D8E6EE"/>
<path d="M79.0883 19.8749L7.35447 61.2905C4.27463 63.0686 3.2008 67.0207 4.98911 70.1181L103.498 240.741C105.276 243.821 109.218 244.877 112.316 243.089L237.533 170.795C240.613 169.016 241.669 165.074 239.891 161.995L169.69 40.4027C166.144 34.2606 160.286 29.805 153.415 28.0233L101.263 14.5106C97.8931 13.8753 90.0423 13.5271 79.0781 19.8573L79.0883 19.8749Z" fill="#EDF4F8"/>
<path d="M101.41 24.6808C106.416 38.9201 111.233 61.0826 113.238 70.8133C113.65 72.828 116.158 73.515 117.543 72.0116C128.076 60.627 160.417 27.4301 169.208 39.6488C165.631 33.9 159.999 29.7132 153.405 28.0058L101.253 14.4931C97.883 13.8578 90.0322 13.5096 79.068 19.8398L75.689 21.7907C75.689 21.7907 97.0721 12.3314 101.389 24.6456L101.41 24.6808Z" fill="#D8E6EE"/>
<path d="M108.069 26.4207C109.777 30.7611 111.168 35.2845 112.085 38.5799C112.78 41.042 115.527 42.2245 117.826 41.085C124.244 37.8956 130.887 35.2572 136.673 33.2074C142.698 31.2069 155.493 27.9261 163.138 32.8753C160.29 30.6245 156.985 28.9655 153.425 28.0411L101.273 14.5284C99.3762 14.1689 96.0378 13.914 91.5251 14.8768C101.743 12.9434 107.618 25.4371 108.069 26.4207Z" fill="white"/>
<path d="M98.9561 65.871L38.5913 100.723C37.6874 101.245 37.3777 102.4 37.8995 103.304L39.5151 106.103C40.037 107.007 41.1929 107.316 42.0968 106.794L102.462 71.9427C103.366 71.4208 103.675 70.265 103.153 69.361L101.538 66.5628C101.016 65.6589 99.86 65.3492 98.9561 65.871Z" fill="#CBE4ED"/>
<path d="M164.802 64.0857L54.2798 127.896C53.3758 128.418 53.0661 129.573 53.588 130.477L55.2036 133.276C55.7255 134.18 56.8813 134.489 57.7853 133.967L168.307 70.1574C169.211 69.6355 169.521 68.4796 168.999 67.5757L167.384 64.7774C166.862 63.8735 165.706 63.5638 164.802 64.0857Z" fill="#CBE4ED"/>
<path d="M180.5 91.2762L69.9783 155.086C69.0743 155.608 68.7646 156.764 69.2865 157.668L70.9021 160.466C71.424 161.37 72.5798 161.68 73.4837 161.158L184.006 97.3479C184.91 96.826 185.22 95.6701 184.698 94.7662L183.082 91.9679C182.56 91.064 181.404 90.7543 180.5 91.2762Z" fill="#CBE4ED"/>
<path d="M196.189 118.449L85.6665 182.259C84.7626 182.781 84.4529 183.937 84.9747 184.841L86.5903 187.639C87.1122 188.543 88.268 188.853 89.172 188.331L199.694 124.521C200.598 123.999 200.908 122.843 200.386 121.939L198.77 119.141C198.248 118.237 197.093 117.927 196.189 118.449Z" fill="#CBE4ED"/>
<path d="M211.887 145.64L101.365 209.45C100.461 209.972 100.151 211.127 100.673 212.031L102.289 214.83C102.811 215.734 103.967 216.043 104.87 215.521L215.393 151.711C216.297 151.19 216.606 150.034 216.084 149.13L214.469 146.332C213.947 145.428 212.791 145.118 211.887 145.64Z" fill="#CBE4ED"/>
</g>
</g>
</svg>
