<svg width="91" height="91" viewBox="0 0 91 91" fill="none" xmlns="http://www.w3.org/2000/svg">
<path d="M42.7606 1.0588C38.64 1.93178 34.9035 5.0396 33.3496 8.89818C30.2766 16.4582 34.8686 25.0134 42.8829 26.6721C47.1781 27.5626 51.5955 26.2182 54.7034 23.058C57.113 20.6136 58.2828 18.0121 58.5098 14.5551C58.9812 7.13476 52.8352 0.692143 45.3448 0.779441C44.594 0.779441 43.4416 0.901659 42.7606 1.0588Z" fill="#7FC1FB"/>
<path d="M13.8989 11.9362C11.9957 12.4425 10.6338 13.2282 9.14971 14.7297C7.63067 16.2312 6.86242 17.5756 6.35608 19.5486C5.91957 21.2596 5.91957 22.8659 6.35608 24.577C6.86242 26.5499 7.63067 27.8943 9.14971 29.3958C10.6338 30.8973 11.9957 31.683 13.8989 32.1894C14.5973 32.364 15.1386 32.5211 15.0862 32.5386C15.0338 32.5386 14.283 32.6957 13.4275 32.8703C7.50845 34.0925 2.89895 38.4225 1.25769 44.3238C0.891025 45.6508 0.873565 46.1047 0.803724 53.787C0.751343 61.6613 0.751343 61.8533 1.10055 62.5517C1.64181 63.5993 2.27038 63.8612 4.43545 63.9659L6.26878 64.0532L7.43861 76.0131C8.76559 89.3174 8.73067 89.1428 10.0053 89.8062C10.6688 90.138 11.018 90.1554 16.483 90.1554C21.9481 90.1554 22.2973 90.138 22.9608 89.8062C24.2179 89.1602 24.2179 89.1078 25.3004 78.1955C25.8766 72.4513 26.2084 68.4007 26.1036 68.3658C26.0163 68.3308 25.5798 68.069 25.1433 67.7721C23.6592 66.7944 22.4719 65.0659 21.9655 63.1802C21.6163 61.8708 21.6163 44.8127 21.983 42.4906C22.2973 40.3256 22.9782 38.0383 23.8163 36.24L24.4973 34.8083L23.9385 34.5115C22.3147 33.6385 19.556 32.7132 18.5957 32.7132C17.6703 32.7132 17.8973 32.4687 19.102 32.1719C20.9703 31.7005 22.3322 30.8973 23.8163 29.3958C25.3353 27.8943 26.1036 26.5499 26.6099 24.577C27.2385 22.1151 26.9242 19.4438 25.702 17.1217C24.9687 15.7074 22.8385 13.5774 21.4243 12.8441C19.1195 11.6393 16.3433 11.3076 13.8989 11.9362Z" fill="#7FC1FB"/>
<path d="M71.8669 11.9362C69.9637 12.4425 68.6018 13.2282 67.1177 14.7297C65.5986 16.2312 64.8304 17.5756 64.324 19.5486C63.8875 21.2596 63.8875 22.8659 64.324 24.577C64.8304 26.5499 65.5986 27.8943 67.1177 29.3958C68.6018 30.8973 69.9637 31.7005 71.8319 32.1719C73.0367 32.4687 73.2637 32.7132 72.3383 32.7132C71.57 32.7132 68.9335 33.5512 67.6415 34.1972L66.4367 34.8083L67.1177 36.24C67.9558 38.0383 68.6367 40.3256 68.951 42.4906C69.3177 44.8127 69.3177 61.8708 68.9685 63.1802C68.4621 65.0659 67.2748 66.7944 65.7907 67.7721C65.3542 68.069 64.9177 68.3308 64.8304 68.3658C64.7256 68.4007 65.0574 72.4513 65.6336 78.1955C66.7161 89.1078 66.7161 89.1602 67.9732 89.8062C68.6367 90.138 68.9859 90.1554 74.451 90.1554C79.916 90.1554 80.2652 90.138 80.9287 89.8062C82.2033 89.1428 82.1684 89.3174 83.4954 76.0131L84.6652 64.0532L86.4985 63.9659C88.6636 63.8612 89.2922 63.5993 89.8334 62.5517C90.1826 61.8533 90.1826 61.6613 90.1303 53.787C90.0604 46.1047 90.043 45.6508 89.6763 44.3238C88.3842 39.697 85.3462 36.0479 81.0335 34.0052C79.7414 33.3941 77.3668 32.7132 76.5462 32.7132C75.6383 32.7132 75.8652 32.4687 77.07 32.1719C78.9382 31.7005 80.3001 30.8973 81.7843 29.3958C83.3033 27.8943 84.0716 26.5499 84.5779 24.577C85.2065 22.1151 84.8922 19.4438 83.67 17.1217C82.9366 15.7074 80.8065 13.5774 79.3922 12.8441C77.0875 11.6393 74.3113 11.3076 71.8669 11.9362Z" fill="#7FC1FB"/>
<path d="M40.4384 27.7546C35.4274 29.2212 31.3417 32.6259 29.0718 37.1828C28.2163 38.9113 27.5702 40.9716 27.3258 42.735C27.2036 43.5556 27.1337 47.5015 27.1337 52.8092C27.1337 61.2073 27.1512 61.5565 27.4829 62.22C28.1115 63.4596 28.6877 63.6167 32.4242 63.6167H35.6194L36.6321 75.8734C37.767 89.5094 37.6972 89.1428 39.0067 89.8062C39.6527 90.138 40.0194 90.1554 45.467 90.1554C50.9146 90.1554 51.2812 90.138 51.9273 89.8062C53.2368 89.1428 53.1669 89.4919 54.3019 75.8734L55.3146 63.6167H58.5098C62.2463 63.6167 62.8225 63.4596 63.451 62.22C63.7828 61.5565 63.8002 61.2073 63.8002 52.8092C63.8002 43.5556 63.7304 42.3334 62.9796 39.9589C61.1288 34.0052 56.5018 29.5006 50.4431 27.7371C49.6051 27.4927 48.732 27.3007 48.5051 27.3007H48.086V36.5543C48.086 45.4936 48.0686 45.8428 47.7368 46.5063C47.3352 47.292 46.34 47.9031 45.4495 47.9031C44.6464 47.9031 43.5638 47.2221 43.1797 46.4714C42.8654 45.8603 42.8479 45.3016 42.8479 36.5543V27.3007L42.3765 27.3181C42.0972 27.3181 41.2416 27.5102 40.4384 27.7546Z" fill="#7FC1FB"/>
</svg>
