<svg width="12" height="12" viewBox="0 0 12 12" fill="none" xmlns="http://www.w3.org/2000/svg">
<path d="M10.4183 7.41821L11.9183 7.00911C12.0272 6.34078 12.0272 5.65922 11.9183 4.99089L10.4183 4.58179C10.3469 4.56209 10.2809 4.5265 10.2252 4.47767C10.1695 4.42884 10.1256 4.36804 10.0967 4.29983C10.0678 4.23161 10.0548 4.15775 10.0585 4.08378C10.0623 4.00981 10.0827 3.93764 10.1183 3.87268L10.8819 2.50902C10.5037 1.96719 10.0328 1.49632 9.49098 1.11808L8.12731 1.88174L7.90913 1.93628C7.79944 1.94058 7.69148 1.90799 7.60249 1.84372C7.5135 1.77945 7.44862 1.68721 7.41821 1.58173L7.00911 0.0816997C6.34078 -0.0272332 5.65922 -0.0272332 4.99089 0.0816997L4.58179 1.58173C4.55138 1.68721 4.4865 1.77945 4.39751 1.84372C4.30852 1.90799 4.20056 1.94058 4.09087 1.93628L3.87268 1.88174L2.50902 1.11808C1.96719 1.49632 1.49632 1.96719 1.11808 2.50902L1.88174 3.87268C1.91732 3.93764 1.93775 4.00981 1.94148 4.08378C1.94522 4.15775 1.93217 4.23161 1.90331 4.29983C1.87445 4.36804 1.83053 4.42884 1.77484 4.47767C1.71915 4.5265 1.65313 4.56209 1.58173 4.58179L0.0816997 4.99089C-0.0272332 5.65922 -0.0272332 6.34078 0.0816997 7.00911L1.58173 7.41821C1.65313 7.4379 1.71915 7.4735 1.77484 7.52233C1.83053 7.57116 1.87445 7.63196 1.90331 7.70017C1.93217 7.76839 1.94522 7.84224 1.94148 7.91622C1.93775 7.99019 1.91732 8.06236 1.88174 8.12731L1.11808 9.49098C1.49632 10.0328 1.96719 10.5037 2.50902 10.8819L3.87268 10.1183L4.09087 10.0637C4.20056 10.0594 4.30852 10.092 4.39751 10.1563C4.4865 10.2206 4.55138 10.3128 4.58179 10.4183L4.99089 11.9183C5.65922 12.0272 6.34078 12.0272 7.00911 11.9183L7.41821 10.4183C7.44862 10.3128 7.5135 10.2206 7.60249 10.1563C7.69148 10.092 7.79944 10.0594 7.90913 10.0637L8.12731 10.1183L9.49098 10.8819C10.0328 10.5037 10.5037 10.0328 10.8819 9.49098L10.1183 8.12731C10.0827 8.06236 10.0623 7.99019 10.0585 7.91622C10.0548 7.84224 10.0678 7.76839 10.0967 7.70017C10.1256 7.63196 10.1695 7.57116 10.2252 7.52233C10.2809 7.4735 10.3469 7.4379 10.4183 7.41821ZM6 8.45459C5.51453 8.45459 5.03996 8.31063 4.6363 8.04092C4.23264 7.77121 3.91803 7.38785 3.73225 6.93933C3.54647 6.49081 3.49786 5.99728 3.59257 5.52113C3.68728 5.04499 3.92106 4.60762 4.26434 4.26434C4.60762 3.92106 5.04499 3.68728 5.52113 3.59257C5.99728 3.49786 6.49081 3.54647 6.93933 3.73225C7.38785 3.91803 7.77121 4.23264 8.04092 4.6363C8.31063 5.03996 8.45459 5.51453 8.45459 6C8.45459 6.651 8.19599 7.27533 7.73566 7.73566C7.27533 8.19599 6.651 8.45459 6 8.45459Z" fill="white"/>
</svg>
